<svg width="15" height="15" viewBox="0 0 15 15" fill="none" xmlns="http://www.w3.org/2000/svg">
<path d="M14.982 5.87254C14.9377 5.73829 14.8222 5.63854 14.6812 5.61754H14.679L10.2097 4.96429L8.22373 0.941293C8.18248 0.707293 8.03623 0.514543 7.83598 0.411043L7.83223 0.408793C7.73548 0.360043 7.62148 0.331543 7.50073 0.331543C7.20748 0.331543 6.95398 0.499543 6.83023 0.744793L6.82798 0.749293L4.91623 4.62154L0.641982 5.24629C0.276732 5.30104 0.000732422 5.61229 0.000732422 5.98879C0.000732422 6.19954 0.0877324 6.38929 0.227232 6.52579L3.32023 9.53854L2.59048 13.7933C2.58373 13.8315 2.57998 13.875 2.57998 13.92C2.57998 14.334 2.91598 14.67 3.32998 14.67C3.45748 14.67 3.57823 14.6378 3.68323 14.5815L3.67948 14.5838L7.85098 12.39C7.92448 12.348 7.98673 12.2963 8.03923 12.2363L8.03998 12.2355L11.8732 14.2515C11.9235 14.2785 11.9842 14.2943 12.048 14.2943C12.255 14.2943 12.423 14.1263 12.423 13.9193C12.423 13.8968 12.4207 13.875 12.417 13.854V13.8563L11.6535 9.40654L14.8867 6.25654C14.9565 6.18829 15 6.09304 15 5.98804C15 5.94679 14.9932 5.90704 14.9812 5.87029L14.982 5.87329V5.87254ZM10.9882 9.00679C10.9177 9.07504 10.8742 9.17104 10.8742 9.27604C10.8742 9.29779 10.8765 9.31954 10.8795 9.34054V9.33829L11.5477 13.233L8.18998 11.4668L7.82323 11.0078L7.49923 2.77429L7.68373 1.55254L9.62398 5.47129C9.67798 5.58004 9.78148 5.65804 9.90373 5.67604H9.90598L13.8187 6.24754L10.9882 9.00679Z" fill="#FFD200"/>
</svg>
